<svg xmlns="http://www.w3.org/2000/svg" width="63px" height="70px" viewBox="0 0 63.13 69.76"><defs><style>.cls-1{fill:#fff;}.cls-2{fill:none;stroke:#fff;stroke-linejoin:round;stroke-width:1.4px;}</style></defs><title>Asset 7</title><g id="Layer_2" data-name="Layer 2"><g id="Layer_1-2" data-name="Layer 1"><g id="_Group_" data-name="&lt;Group&gt;"><path class="cls-1" d="M57.67,47.79l-.09-2.3a43.76,43.76,0,0,0-.7-6.1l0-.17L59,34.87l.49.61c.09.11,2.12,2.76-.92,10.17Zm.23-8.44a36.88,36.88,0,0,1,.52,3.74c1-3.15.87-5.06.62-6.07Z"/><path class="cls-1" d="M5.46,47.79l-.87-2.13c-3-7.41-1-10.06-.92-10.17l.49-.61,2.12,4.34,0,.17a43.76,43.76,0,0,0-.7,6.1ZM4.09,37c-.25,1-.37,2.92.62,6.07a36.88,36.88,0,0,1,.52-3.74Z"/></g><g id="_Group_2" data-name="&lt;Group&gt;"><path id="_Path_" data-name="&lt;Path&gt;" class="cls-2" d="M1.35,31,3,31.52s-4.08,9.1,2.18,16.7A77.65,77.65,0,0,0,6.72,63.62s1.1,3.93,7.41,3.8c0,0,.52,2.06,1.42,1.48a1.22,1.22,0,0,0,1.68-.52,4.59,4.59,0,0,0,4.58-1s.58-.52.9-2.64V36s-.32-3.48-3.48-3.42a8.35,8.35,0,0,0-2.26.84s-1.74-.84-2.26-.06c0,0-.9-.52-.9.13l-.26,1.29s-5.16-.32-6.7,2.45l-.19.45-.37-1a32,32,0,0,0-1.91-5.22,4.38,4.38,0,0,0,2.32-1s.64-6.38,1.74-8a1.09,1.09,0,0,0-.13-.84s.13.13,2.19-2.45c0,0,4-9.66,17.52-12.24a21.34,21.34,0,0,1,8.23.26v0c12.59,2.89,16.39,12,16.39,12,2.06,2.58,2.19,2.45,2.19,2.45a1.09,1.09,0,0,0-.13.84c1.1,1.61,1.74,8,1.74,8a4.38,4.38,0,0,0,2.32,1,32,32,0,0,0-1.91,5.22l-.37,1-.19-.45c-1.55-2.77-6.7-2.45-6.7-2.45l-.26-1.29c0-.64-.9-.13-.9-.13-.52-.77-2.26.06-2.26.06a8.35,8.35,0,0,0-2.26-.84C40.75,32.55,40.42,36,40.42,36V64.78c.32,2.13.9,2.64.9,2.64a4.59,4.59,0,0,0,4.58,1,1.22,1.22,0,0,0,1.68.52c.9.58,1.42-1.48,1.42-1.48,6.32.13,7.41-3.8,7.41-3.8A77.65,77.65,0,0,0,58,48.22c5.85-5.77,2.18-16.7,2.18-16.7L61.79,31a.83.83,0,0,0,.64-.9,46,46,0,0,0-1.87-8.7c-.19-.39-1.1-.52-1.1-.52C54.7,6.15,41.46,2.05,35.25.93a26.6,26.6,0,0,0-9.83.54h0C18.69,3.16,7.87,7.87,3.67,20.88c0,0-.9.13-1.1.52A46,46,0,0,0,.7,30.1.83.83,0,0,0,1.35,31Z"/></g></g></g></svg>