<svg xmlns="http://www.w3.org/2000/svg" width="107px" height="28px" viewBox="0 0 106.78 27.65"><defs><style>.cls-1{fill:none;stroke:#fff;stroke-miterlimit:10;stroke-width:1.4px;}</style></defs><title>Asset 5</title><g id="Layer_2" data-name="Layer 2"><g id="Layer_1-2" data-name="Layer 1"><path id="_Path_" data-name="&lt;Path&gt;" class="cls-1" d="M6.81,1.75H5.21v.59H4.42V1.75H2.27s-.64,0-.65.52H.73v9.6H2.66v2.61H.7V18.2h2v2.55H.7V26a.84.84,0,0,0,.91.91H61.08s.74,0,.85-.52v-2s0-.59.83-.59c0,0,.77-.06.77.64v2a.83.83,0,0,0,.86.55h40.78a.84.84,0,0,0,.91-.91V20.75h-2V18.2h2V14.48h-2V11.87H106V2.37h-.88c0-.54-.65-.52-.65-.52h-2.15v.59h-.78V1.85h-1.31"/><rect class="cls-1" x="6.47" y="0.7" width="93.76" height="18.72" rx="1.13" ry="1.13"/></g></g></svg>