<svg xmlns="http://www.w3.org/2000/svg" width="30.46" height="72.19" viewBox="0 0 30.46 72.19">
  <defs>
    <style>
      .cls-1{fill:none}.cls-2{fill:#fff}
    </style>
  </defs>
  <title>
    Hx Microphone
  </title>
  <path class="cls-1" d="M23.52 30.98v3.11h3.04l-3.04-3.11zM8.54 54.82c0 .71.38 2.72 2.1 2.72h9.28c1.49 0 2.18-1.41 2.18-2.72v-7.08H8.54zM22.12 34.09V3.29a1.47 1.47 0 0 0-1.45-1.61 46.07 46.07 0 0 0-10.18 0 1.86 1.86 0 0 0-2 1.77h-.06c.09 1.4.07 7 0 30.65zM23.5 49.85l1.88-2.11H23.5v2.11zM7.14 50.13v-2.39h-2.3l2.3 2.39zM7 31l-2.8 3.09H7V31zM23.59 38.74h3.6v4.35h-3.6zM29.06 35.46l-27.69.03.03 1.89 27.66-.04v-1.88zM8.46 38.74h13.72v4.35H8.46zM3.46 38.74h3.6v4.35h-3.6zM1.4 46.38l27.66-.04v-1.88l-27.69.03.03 1.89z"/>
  <path class="cls-1" d="M8.54 54.82c0 .71.38 2.72 2.1 2.72h9.28c1.49 0 2.18-1.41 2.18-2.72v-7.08H8.54zM7.14 50.13v-2.39h-2.3l2.3 2.39zM23.52 30.98v3.11h3.04l-3.04-3.11zM23.5 49.85l1.88-2.11H23.5v2.11zM22.12 3.29a1.47 1.47 0 0 0-1.45-1.61 46.07 46.07 0 0 0-10.18 0 1.86 1.86 0 0 0-2 1.77L8.4 34.09h13.72zM7 31l-2.8 3.09H7V31zM23.59 38.74h3.6v4.35h-3.6zM8.46 38.74h13.72v4.35H8.46zM1.4 46.38l27.66-.04v-1.88l-27.69.03.03 1.89zM29.06 35.46l-27.69.03.03 1.89 27.66-.04v-1.88zM3.46 38.74h3.6v4.35h-3.6zM17.56 58.94h-4.28V67A100.73 100.73 0 0 0 2 67.79v1.69c2.76.51 15.33 2.57 26.69.19V67.8c-1.36-.17-5.55-.64-11.16-.76z"/>
  <path class="cls-1" d="M23.5 49.85l1.88-2.11H23.5v2.11zM7.14 50.13v-2.39h-2.3l2.3 2.39zM17.56 58.94h-4.28V67A100.73 100.73 0 0 0 2 67.79v1.69c2.76.51 15.33 2.57 26.69.19V67.8c-1.36-.17-5.55-.64-11.16-.76zM23.52 30.98v3.11h3.04l-3.04-3.11zM7 31l-2.8 3.09H7V31zM22.12 3.29a1.47 1.47 0 0 0-1.45-1.61 46.07 46.07 0 0 0-10.18 0 1.86 1.86 0 0 0-2 1.77L8.4 34.09h13.72zM8.54 54.82c0 .71.38 2.72 2.1 2.72h9.28c1.49 0 2.18-1.41 2.18-2.72v-7.08H8.54zM29.06 35.46l-27.69.03.03 1.89 27.66-.04v-1.88zM23.59 38.74h3.6v4.35h-3.6zM1.4 46.38l27.66-.04v-1.88l-27.69.03.03 1.89zM8.46 38.74h13.72v4.35H8.46zM3.46 38.74h3.6v4.35h-3.6z"/>
  <path class="cls-2" d="M29.1 38.74a1.36 1.36 0 0 0 1.36-1.36v-1.92a1.37 1.37 0 0 0-1.36-1.37h-.59l-5-5.12V3.29a2.87 2.87 0 0 0-2.76-3 45.86 45.86 0 0 0-10.42 0 3.2 3.2 0 0 0-3.2 3.11L7 28.9l-4.66 5.19h-1A1.37 1.37 0 0 0 0 35.46v1.92a1.36 1.36 0 0 0 1.37 1.36h.69v4.35h-.69A1.37 1.37 0 0 0 0 44.46v1.92a1.36 1.36 0 0 0 1.37 1.36H2.9l4.24 4.41v2.67c0 1.6 1 4.12 3.5 4.12h1.24v6.72a101.65 101.65 0 0 0-10.64.82.69.69 0 0 0-.61.69v2.89a.69.69 0 0 0 .55.68 65.49 65.49 0 0 0 14.46 1.45 70.31 70.31 0 0 0 13.93-1.27.71.71 0 0 0 .55-.69v-3a.69.69 0 0 0-.6-.69h-.12c-.08 0-4.26-.6-10.44-.8v-6.8h1c2.35 0 3.58-2.07 3.58-4.12V52l3.75-4.22h1.81a1.36 1.36 0 0 0 1.36-1.36v-1.96a1.37 1.37 0 0 0-1.36-1.37h-.51v-4.35zM23.53 31l3 3.11h-3zM8.52 3.44a1.86 1.86 0 0 1 2-1.77 46.07 46.07 0 0 1 10.18 0 1.47 1.47 0 0 1 1.45 1.61v30.8H8.4zM7 31v3.09H4.22zm.12 19.13l-2.3-2.39h2.3zm21.6 17.67v1.87C17.36 72.05 4.79 70 2 69.48v-1.69A100.73 100.73 0 0 1 13.28 67v-8.06h4.28V67c5.61.16 9.8.63 11.16.8zm-6.62-13c0 1.31-.69 2.72-2.18 2.72h-9.28c-1.72 0-2.1-2-2.1-2.72v-7.06H22.1zm1.4-5v-2.06h1.88zm5.56-5.39v1.88H1.4V44.4zm-25.6-1.32v-4.35h3.6v4.35zm5 0v-4.35h13.73v4.35zm15.13 0v-4.35h3.6v4.35zM1.4 37.38v-1.89h27.69v1.88z"/>
</svg>