<svg xmlns="http://www.w3.org/2000/svg" width="36px" height="55px" viewBox="0 0 35.8 55.33"><defs><style>.cls-1,.cls-2{fill:none;stroke:#fff;stroke-width:1.4px;}.cls-1{stroke-miterlimit:10;}.cls-2{stroke-linejoin:round;}</style></defs><title>Asset 4</title><g id="Layer_2" data-name="Layer 2"><g id="Layer_1-2" data-name="Layer 1"><line class="cls-1" x1="0.76" y1="27.7" x2="35.04" y2="27.7"/><path class="cls-2" d="M16.33,27.64V19.79h0a3.56,3.56,0,0,1-2.1-3.3V12.7a3.66,3.66,0,0,1,2.16-3.37h0s.07-7,0-7.08A1.42,1.42,0,0,0,14.87.76S.7.27.7,10.15V36.93S1.09,54.63,18,54.63,35.09,37,35.09,37V10.18S35.67.7,20.88.7a1.4,1.4,0,0,0-1.54,1.54V9.31h0a3.67,3.67,0,0,1,2.24,3.38v3.8a3.67,3.67,0,0,1-2.26,3.39h0v7.57"/></g></g></svg>