<svg xmlns="http://www.w3.org/2000/svg" width="103px" height="61px" viewBox="0 0 102.78 61.1"><defs><style>.cls-1{fill:none;stroke:#fff;stroke-miterlimit:10;stroke-width:1.4px;}</style></defs><title>Asset 3</title><g id="Layer_2" data-name="Layer 2"><g id="Layer_1-2" data-name="Layer 1"><path id="_Path_" data-name="&lt;Path&gt;" class="cls-1" d="M10.1,14.84H4S.7,14.56.7,17.87V58A2.5,2.5,0,0,0,3.45,60.4H99.72a2.27,2.27,0,0,0,2.36-2.26v-40A3,3,0,0,0,99,14.84H66.51"/><path id="_Path_2" data-name="&lt;Path&gt;" class="cls-1" d="M63.37.71H13.43s-3.31-.28-3.31,3v38a2.5,2.5,0,0,0,2.75,2.44H64.13a2.27,2.27,0,0,0,2.36-2.26V4A3,3,0,0,0,63.37.71Z"/></g></g></svg>